<svg xmlns="http://www.w3.org/2000/svg" viewBox="0 0 1600 1200" role="img" aria-labelledby="title desc">
  <title id="title">Classic car service</title>
  <desc id="desc">Illustrated vintage vehicle in a workshop service bay</desc>
  <rect width="1600" height="1200" fill="#161b20"/>
  <rect y="830" width="1600" height="370" fill="#22292f"/>
  <path d="M300 700h780c48 0 88 39 88 88v50H212v-44c0-52 42-94 94-94z" fill="#8f3130"/>
  <path d="M450 570h360c48 0 88 39 88 88v42H362v-42c0-49 39-88 88-88z" fill="#d9ddd9"/>
  <rect x="468" y="592" width="160" height="84" rx="16" fill="#3f697e"/>
  <rect x="648" y="592" width="146" height="84" rx="16" fill="#3f697e"/>
  <circle cx="432" cy="850" r="94" fill="#101316"/>
  <circle cx="1010" cy="850" r="94" fill="#101316"/>
  <rect x="1140" y="250" width="280" height="210" rx="24" fill="#2f3941"/>
  <rect x="1185" y="295" width="190" height="120" rx="16" fill="#3f697e" opacity=".34"/>
  <path d="M1180 620c54-100 151-145 229-117-17 56-8 101-2 147 9 69-24 141-103 178-72-24-124-97-124-208z" fill="#c8cfd4"/>
  <rect x="1220" y="575" width="110" height="140" rx="18" fill="#23292f"/>
  <path d="M1185 800c20-59 65-95 91-95 27 0 76 22 97 95v94h-188z" fill="#b53b2f"/>
  <text x="200" y="1045" fill="#f6f7f8" font-family="Segoe UI, Arial, sans-serif" font-size="48" font-weight="700">Classic and vintage vehicle servicing</text>
</svg>
