<svg xmlns="http://www.w3.org/2000/svg" viewBox="0 0 1600 900" role="img" aria-labelledby="title desc">
  <title id="title">Transmission workshop hero scene</title>
  <desc id="desc">Illustrated professional automotive workshop with mechanic and transmission components</desc>
  <defs>
    <linearGradient id="bg" x1="0" x2="1" y1="0" y2="1">
      <stop offset="0" stop-color="#1a1f24"/>
      <stop offset="1" stop-color="#0b0e11"/>
    </linearGradient>
    <linearGradient id="accent" x1="0" x2="1">
      <stop offset="0" stop-color="#b53b2f"/>
      <stop offset="1" stop-color="#7d2b23"/>
    </linearGradient>
  </defs>
  <rect width="1600" height="900" fill="url(#bg)"/>
  <rect x="0" y="650" width="1600" height="250" fill="#20262c"/>
  <rect x="90" y="120" width="420" height="300" rx="18" fill="#28323a"/>
  <rect x="120" y="150" width="360" height="240" rx="12" fill="#3b697e" opacity=".35"/>
  <rect x="1180" y="100" width="220" height="110" rx="14" fill="#20262c"/>
  <rect x="1210" y="130" width="160" height="12" rx="6" fill="#b8c0c7" opacity=".45"/>
  <rect x="1210" y="160" width="110" height="12" rx="6" fill="#b8c0c7" opacity=".3"/>
  <circle cx="520" cy="670" r="84" fill="#111315"/>
  <circle cx="1090" cy="670" r="84" fill="#111315"/>
  <path d="M420 590h780c38 0 70 31 70 70v35H330v-20c0-47 38-85 90-85z" fill="#5a646d"/>
  <path d="M555 500h265c44 0 80 36 80 80v15H495v-15c0-44 36-80 80-80z" fill="url(#accent)"/>
  <path d="M760 350c45 0 82 37 82 82v54H678v-54c0-45 37-82 82-82z" fill="#9aa4ad"/>
  <rect x="712" y="372" width="96" height="76" rx="18" fill="#3f697e"/>
  <circle cx="760" cy="406" r="20" fill="#111315"/>
  <path d="M1025 320l78 68-34 38-74-60z" fill="#68737d"/>
  <circle cx="1118" cy="446" r="65" fill="#b53b2f"/>
  <circle cx="1118" cy="446" r="31" fill="#111315"/>
  <path d="M306 310c54-102 156-160 236-127-17 41-10 87-5 129 9 70-24 151-107 185-73-29-120-105-124-187z" fill="#c9d0d6"/>
  <rect x="353" y="257" width="104" height="135" rx="18" fill="#20262c"/>
  <path d="M319 497c24-65 78-86 108-86 29 0 86 23 108 86v152H319z" fill="#b53b2f"/>
  <rect x="561" y="210" width="410" height="24" rx="12" fill="#2b333a"/>
  <rect x="980" y="230" width="180" height="18" rx="9" fill="#2b333a"/>
  <text x="90" y="808" fill="#f6f7f8" font-family="Segoe UI, Arial, sans-serif" font-size="48" font-weight="700">Burwood workshop transmission expertise</text>
</svg>
