<svg xmlns="http://www.w3.org/2000/svg" viewBox="0 0 1600 1200" role="img" aria-labelledby="title desc">
  <title id="title">Mechanic servicing vehicle in workshop</title>
  <desc id="desc">Illustrated mechanic inspecting a vehicle on the workshop floor</desc>
  <rect width="1600" height="1200" fill="#171c21"/>
  <rect y="850" width="1600" height="350" fill="#23292f"/>
  <rect x="120" y="120" width="500" height="340" rx="22" fill="#2c363f"/>
  <rect x="165" y="165" width="410" height="250" rx="16" fill="#406a7f" opacity=".32"/>
  <rect x="930" y="120" width="450" height="90" rx="16" fill="#23292f"/>
  <path d="M320 730h800c54 0 98 44 98 98v22H222v-18c0-56 45-102 98-102z" fill="#6d7984"/>
  <path d="M470 650h460c44 0 80 36 80 80H390c0-44 36-80 80-80z" fill="#3f697e"/>
  <circle cx="430" cy="865" r="92" fill="#101316"/>
  <circle cx="1038" cy="865" r="92" fill="#101316"/>
  <path d="M1200 495c58-106 170-145 244-112-16 60-7 108 0 155 9 68-27 145-108 182-74-24-129-103-136-225z" fill="#c7cfd5"/>
  <rect x="1248" y="448" width="108" height="138" rx="18" fill="#23292f"/>
  <path d="M1212 700c22-71 79-98 121-98 41 0 100 24 121 98v150h-242z" fill="#b53b2f"/>
  <rect x="1130" y="680" width="92" height="28" rx="10" fill="#dfe5e9"/>
  <rect x="1082" y="708" width="52" height="16" rx="8" fill="#dfe5e9"/>
  <text x="120" y="1040" fill="#f6f7f8" font-family="Segoe UI, Arial, sans-serif" font-size="50" font-weight="700">Professional mechanical service in a clean workshop</text>
</svg>
